<?xml version="1.0" encoding="UTF-8" standalone="no"?>
<!-- Created with Inkscape (http://www.inkscape.org/) -->

<svg
   xmlns:dc="http://purl.org/dc/elements/1.1/"
   xmlns:cc="http://creativecommons.org/ns#"
   xmlns:rdf="http://www.w3.org/1999/02/22-rdf-syntax-ns#"
   xmlns:svg="http://www.w3.org/2000/svg"
   xmlns="http://www.w3.org/2000/svg"
   xmlns:sodipodi="http://sodipodi.sourceforge.net/DTD/sodipodi-0.dtd"
   xmlns:inkscape="http://www.inkscape.org/namespaces/inkscape"
   width="47.095833mm"
   height="47.095833mm"
   viewBox="0 0 47.095833 47.095833"
   version="1.1"
   id="svg8"
   sodipodi:docname="bodhi.svg"
   inkscape:version="0.92.5 (2060ec1f9f, 2020-04-08)">
  <defs
     id="defs2" />
  <sodipodi:namedview
     id="base"
     pagecolor="#ffffff"
     bordercolor="#666666"
     borderopacity="1.0"
     inkscape:pageopacity="0.0"
     inkscape:pageshadow="2"
     inkscape:zoom="1.4"
     inkscape:cx="323.65797"
     inkscape:cy="80.845957"
     inkscape:document-units="mm"
     inkscape:current-layer="layer1"
     showgrid="false"
     inkscape:window-width="1919"
     inkscape:window-height="996"
     inkscape:window-x="0"
     inkscape:window-y="0"
     inkscape:window-maximized="1"
     fit-margin-top="0"
     fit-margin-left="0"
     fit-margin-right="0"
     fit-margin-bottom="0" />
  <metadata
     id="metadata5">
    <rdf:RDF>
      <cc:Work
         rdf:about="">
        <dc:format>image/svg+xml</dc:format>
        <dc:type
           rdf:resource="http://purl.org/dc/dcmitype/StillImage" />
        <dc:title></dc:title>
      </cc:Work>
    </rdf:RDF>
  </metadata>
  <g
     inkscape:label="Layer 1"
     inkscape:groupmode="layer"
     id="layer1"
     transform="translate(-16.234077,-266.27054)">
    <path
       style="fill:#75ac31;stroke-width:0.26458332;fill-opacity:1"
       d="m 36.252385,312.97939 c -9.427418,-1.71827 -16.806075,-8.58253 -19.002283,-17.67758 -1.181778,-4.89404 -0.595858,-10.16952 1.651762,-14.87204 1.214601,-2.54121 1.695401,-3.175 2.408607,-3.175 0.924177,0 0.850107,0.81873 -0.27241,3.01109 -1.489433,2.90896 -2.11614,4.86576 -2.4214,7.56047 -0.465799,4.11187 0.352045,8.20548 2.460341,12.3149 1.607183,3.13267 5.512833,6.98025 8.793346,8.6626 3.239856,1.6615 5.703026,2.32722 9.250187,2.50001 4.801439,0.2339 8.694791,-0.6878 12.040981,-2.85055 1.881074,-1.2158 2.511102,-1.25196 2.511102,-0.14413 0,0.65696 -0.268361,0.91527 -2.116666,2.03737 -3.107272,1.88642 -5.953906,2.63982 -10.451042,2.76603 -1.964531,0.0551 -4.148167,-0.005 -4.852525,-0.13317 z m 24.108572,-1.13381 c -0.54152,-0.32784 -3.60789,-3.13504 -6.814161,-6.23822 -3.206269,-3.10319 -6.317538,-6.04983 -6.913933,-6.5481 -1.700636,-1.42084 -2.061522,-1.41418 -4.543939,0.0838 -2.61629,1.57881 -3.303649,1.84089 -5.288611,2.01653 -1.40028,0.12389 -1.706501,0.0436 -3.704167,-0.97083 -1.545876,-0.78504 -2.35018,-1.37457 -2.772204,-2.03193 -0.326981,-0.50933 -0.782922,-1.16417 -1.013202,-1.45521 -0.845706,-1.06886 -2.493375,-4.84484 -2.495073,-5.71799 -9.59e-4,-0.49313 -0.237194,-1.25378 -0.524967,-1.69035 -0.287773,-0.43656 -0.657491,-1.44859 -0.821596,-2.24895 -0.164106,-0.80037 -0.479103,-2.03847 -0.699994,-2.75134 -0.285742,-0.92216 -0.352855,-1.82084 -0.232603,-3.11471 0.192933,-2.07588 -0.298883,-3.42789 -1.614319,-4.43779 -0.810395,-0.62216 -1.042392,-0.92482 -3.45057,-4.50155 -1.745997,-2.59323 -2.160999,-3.57491 -1.704341,-4.03156 0.193443,-0.19345 0.480193,0.12287 0.947646,1.04534 0.88444,1.74536 3.514303,5.03319 4.962409,6.20396 1.897704,1.53426 2.209216,1.63488 3.930361,1.26963 2.856181,-0.60612 8.615453,0.029 10.28565,1.13429 0.595955,0.39438 1.263424,0.71706 1.483265,0.71706 0.21984,0 1.026065,0.23806 1.79161,0.52903 0.765545,0.29097 1.749088,0.52954 2.18565,0.53016 0.949331,0.001 2.401541,0.83079 2.63016,1.50224 0.09013,0.2647 0.785368,0.90014 1.544979,1.41209 1.172286,0.79007 1.545685,1.26545 2.469562,3.14403 0.989359,2.01174 1.066234,2.31211 0.844407,3.29938 -0.410532,1.82714 -1.16387,3.23246 -2.126334,3.96656 -1.07555,0.82037 -1.923487,2.51472 -1.701369,3.3997 0.230431,0.91812 4.12223,5.212 7.583387,8.36687 6.628953,6.04234 7.410286,6.80725 7.409328,7.25359 -0.0013,0.61942 -0.462409,0.58141 -1.647031,-0.13576 z m -3.528915,-7.19149 c -0.470487,-0.34989 -0.480282,-0.43664 -0.116715,-1.03368 0.218281,-0.35845 0.91241,-1.48945 1.54251,-2.51333 2.93411,-4.76778 3.649009,-11.36429 1.860288,-17.16526 -2.08992,-6.77777 -7.620018,-12.11254 -14.665637,-14.14761 -2.964686,-0.85633 -8.3066,-0.85743 -11.303867,-0.002 -2.588411,0.73845 -5.433059,2.15951 -7.37729,3.68537 -1.580594,1.24046 -2.411821,1.38214 -2.547705,0.43423 -0.19999,-1.39509 5.285153,-4.80021 9.605243,-5.96283 1.720207,-0.46295 2.860027,-0.57011 6.085416,-0.57211 3.553989,-0.002 4.211982,0.0717 6.296181,0.70696 5.793261,1.76586 10.265699,5.18888 13.369579,10.23252 3.971411,6.45333 4.461128,15.54101 1.190376,22.08979 -0.944391,1.89089 -2.84902,4.63021 -3.219347,4.63021 -0.112993,0 -0.436557,-0.17187 -0.719032,-0.38193 z"
       id="path948"
       inkscape:connector-curvature="0" />
  </g>
</svg>
